<?xml version="1.0" encoding="utf-8"?>
<svg viewBox="0 0 2196 1088" xmlns="http://www.w3.org/2000/svg" xmlns:bx="https://boxy-svg.com">
  <defs>
    <style bx:fonts="Merienda">@import url(https://fonts.googleapis.com/css2?family=Merienda%3Aital%2Cwght%400%2C300..900&amp;display=swap);</style>
  </defs>
  <g transform="matrix(0.10000000149011612, 0, 0, -0.10000000149011612, 0, 1088)" fill="#000000" stroke="none">
    <path d="M5655 10794 c-297 -27 -354 -33 -495 -54 -342 -49 -622 -106 -889&#10;-181 -151 -42 -448 -135 -536 -169 -27 -10 -93 -34 -146 -54 -249 -91 -697&#10;-309 -961 -467 -864 -520 -1516 -1166 -1982 -1962 -328 -560 -516 -1110 -618&#10;-1802 -20 -134 -22 -191 -23 -530 0 -410 6 -491 56 -780 59 -342 163 -710 281&#10;-999 28 -66 57 -139 65 -161 8 -22 20 -47 27 -55 7 -8 23 -40 36 -70 31 -75&#10;78 -168 135 -270 26 -47 55 -98 64 -115 18 -34 109 -179 161 -259 64 -98 94&#10;-140 189 -266 129 -170 151 -199 188 -240 17 -19 58 -66 90 -105 133 -158 522&#10;-532 697 -670 21 -16 64 -51 95 -76 49 -41 166 -128 326 -245 28 -20 88 -60&#10;135 -90 47 -30 112 -72 145 -93 280 -179 746 -414 1080 -546 257 -101 425&#10;-159 695 -240 423 -126 958 -228 1390 -265 74 -6 171 -15 214 -21 103 -12 839&#10;-12 959 0 51 6 146 15 212 21 142 13 384 44 510 66 50 8 128 21 175 29 176 30&#10;627 141 729 180 20 8 92 32 161 53 599 190 1282 538 1775 905 16 12 66 49 110&#10;81 194 144 597 509 579 525 -5 4 -175 104 -379 221 -203 117 -496 286 -650&#10;375 -419 241 -443 255 -456 255 -7 0 -42 -26 -78 -58 -431 -378 -1012 -698&#10;-1581 -872 -434 -132 -742 -193 -1130 -224 -290 -23 -470 -28 -670 -17 -604&#10;34 -1026 114 -1570 298 -516 175 -1067 474 -1486 808 -28 22 -66 51 -84 65&#10;-98 73 -291 259 -434 419 -61 69 -119 134 -129 145 -74 82 -262 353 -368 531&#10;-83 139 -182 343 -245 505 -182 470 -257 910 -234 1372 13 253 33 392 91 638&#10;40 167 117 394 176 520 128 275 194 393 330 592 165 238 230 316 453 538 155&#10;153 237 228 298 269 20 13 62 45 92 71 30 25 65 53 76 61 12 8 64 43 115 78&#10;265 182 636 369 974 493 135 49 154 55 335 106 375 106 661 158 1060 192 158&#10;13 641 13 768 0 53 -6 144 -15 202 -20 433 -43 931 -162 1370 -328 246 -93&#10;637 -286 849 -419 139 -88 380 -254 450 -311 25 -21 53 -43 62 -50 18 -13 2&#10;-25 519 419 74 63 276 235 448 382 171 147 312 269 312 272 0 7 -225 183 -365&#10;286 -111 81 -195 138 -273 184 -9 6 -42 27 -72 46 -396 258 -1001 545 -1490&#10;706 -594 195 -1153 314 -1705 363 -71 6 -171 16 -222 21 -134 13 -821 9 -988&#10;-7z m3770 -1195 c32 -6 83 -22 113 -36 61 -28 162 -117 162 -142 0 -10 6 -23&#10;13 -29 8 -9 12 -44 12 -100 0 -82 -2 -91 -34 -144 -77 -127 -220 -204 -401&#10;-214 -178 -11 -307 31 -396 128 -123 136 -94 318 69 442 26 20 49 36 52 36 2&#10;0 28 11 57 25 92 42 234 56 353 34z m415 -7620 c143 -46 219 -111 257 -219 33&#10;-92 0 -204 -84 -288 -104 -105 -303 -167 -453 -143 -144 24 -200 51 -274 133&#10;-75 82 -94 165 -60 265 45 134 184 231 384 267 40 7 192 -2 230 -15z"/>
    <path d="M5905 8935 c-306 -26 -632 -86 -940 -172 -315 -88 -699 -243 -908&#10;-367 -43 -25 -80 -46 -81 -46 -10 0 -188 -108 -221 -134 -22 -17 -80 -58 -129&#10;-91 -193 -130 -554 -472 -697 -660 -29 -38 -78 -101 -107 -140 -30 -38 -79&#10;-113 -110 -165 -30 -52 -70 -116 -88 -143 -19 -26 -34 -51 -34 -56 0 -4 -30&#10;-71 -66 -147 -79 -165 -164 -411 -200 -572 -14 -65 -31 -144 -39 -177 -39&#10;-166 -55 -570 -31 -770 26 -216 35 -277 51 -350 61 -272 141 -497 265 -747 67&#10;-136 130 -248 157 -279 7 -9 21 -31 31 -50 56 -110 303 -411 483 -589 148&#10;-146 369 -338 469 -406 233 -159 299 -203 325 -216 17 -8 86 -47 155 -87 69&#10;-40 181 -98 250 -128 69 -30 148 -65 175 -78 103 -47 416 -154 580 -198 233&#10;-63 294 -76 605 -127 110 -18 420 -39 620 -42 236 -3 513 14 714 43 124 18&#10;189 30 401 74 276 57 923 295 1105 405 8 5 42 23 75 41 233 123 641 407 618&#10;430 -18 18 -418 239 -432 239 -8 0 -39 -19 -70 -42 -53 -40 -150 -108 -155&#10;-108 -1 0 -52 -30 -112 -66 -190 -115 -425 -225 -664 -311 -125 -45 -439 -138&#10;-515 -153 -33 -6 -73 -16 -90 -21 -62 -18 -366 -59 -525 -70 -185 -13 -579 -7&#10;-740 10 -440 47 -898 170 -1270 338 -193 88 -195 89 -345 173 -192 107 -393&#10;244 -535 364 -87 73 -301 276 -355 336 -102 113 -325 406 -325 426 0 4 -12 23&#10;-27 43 -40 51 -172 317 -220 441 -102 265 -126 355 -162 620 -47 350 -32 637&#10;54 995 26 105 111 336 172 465 66 138 197 357 267 447 25 32 69 87 97 123 151&#10;192 390 413 634 583 70 49 139 93 187 120 25 14 63 36 85 49 57 36 249 132&#10;323 162 36 15 74 31 85 36 130 56 463 157 655 199 535 117 985 140 1479 75&#10;686 -89 1374 -400 1890 -851 52 -46 99 -83 104 -83 8 0 166 133 317 268 l45&#10;40 -58 53 c-32 30 -63 59 -70 64 -250 205 -478 362 -684 471 -59 31 -130 69&#10;-158 84 -99 55 -433 189 -605 243 -304 97 -598 154 -921 182 -207 18 -574 17&#10;-784 0z"/>
    <path d="M19815 6525 c-11 -8 -58 -17 -105 -21 -241 -18 -431 -79 -526 -169&#10;-51 -49 -117 -75 -188 -75 -41 0 -198 -39 -232 -58 -41 -22 -134 -141 -134&#10;-170 0 -7 -9 -34 -21 -59 -18 -40 -20 -61 -17 -193 2 -82 7 -152 11 -157 15&#10;-15 101 -7 172 16 62 20 156 36 338 57 47 6 61 4 77 -11 18 -17 19 -30 14&#10;-394 -3 -207 -7 -385 -9 -396 -6 -29 -51 -51 -120 -60 -71 -8 -131 -39 -151&#10;-76 -12 -24 -11 -35 12 -100 16 -46 41 -91 68 -123 24 -28 63 -80 87 -116 52&#10;-77 57 -112 58 -377 l1 -171 31 -26 c17 -14 43 -29 57 -32 15 -4 32 -10 37&#10;-14 10 -8 116 -49 235 -91 30 -11 72 -29 92 -39 61 -33 95 -27 156 28 63 56&#10;69 73 87 262 8 74 20 173 28 220 9 47 18 129 22 183 4 53 14 121 22 150 8 28&#10;21 76 29 106 16 57 49 115 82 144 49 45 134 27 278 -56 33 -19 104 -58 159&#10;-87 55 -28 107 -58 115 -65 8 -7 49 -33 90 -57 72 -43 184 -116 300 -198 30&#10;-21 60 -39 66 -39 6 -1 31 -16 55 -33 39 -29 199 -133 276 -180 15 -9 55 -37&#10;89 -62 33 -24 93 -57 132 -74 39 -16 88 -43 109 -60 106 -82 157 -38 173 151&#10;5 56 15 145 23 197 9 52 19 137 22 189 6 73 11 97 26 109 24 21 28 132 5 132&#10;-7 0 -19 6 -25 14 -18 22 -178 111 -251 139 -63 25 -178 82 -365 182 -153 81&#10;-175 116 -109 177 61 55 141 141 181 193 20 28 43 55 49 60 16 13 74 124 74&#10;142 0 8 11 35 25 61 14 26 25 58 25 73 0 14 7 46 16 71 14 42 14 49 -1 84 -10&#10;22 -19 58 -20 82 -9 109 -146 249 -307 313 -29 11 -75 30 -103 41 -27 11 -70&#10;24 -95 30 -25 5 -79 18 -120 28 -41 10 -100 22 -130 25 -30 4 -66 12 -80 17&#10;-21 8 -145 21 -320 34 -295 21 -357 27 -367 36 -6 5 -14 21 -18 36 -3 15 -14&#10;37 -25 50 -15 19 -28 22 -82 21 -37 0 -71 -6 -83 -14z m670 -656 c22 -5 57&#10;-15 79 -20 48 -12 114 -50 146 -84 20 -21 23 -35 24 -102 0 -73 -13 -135 -57&#10;-255 -11 -34 -29 -39 -222 -69 -156 -24 -189 -35 -245 -79 -52 -41 -77 -98&#10;-84 -195 -8 -89 -18 -105 -73 -105 -61 0 -62 6 -65 385 -3 341 3 459 25 489&#10;25 35 86 45 262 45 94 0 188 -4 210 -10z m-875 -2008 c14 -28 13 -31 -15 -31&#10;-24 0 -51 31 -38 44 13 13 43 5 53 -13z"/>
    <path d="M7220 6366 c-25 -7 -95 -16 -155 -20 -97 -6 -165 -18 -325 -58 -25&#10;-6 -74 -16 -110 -23 -86 -17 -241 -72 -312 -111 -14 -8 -32 -14 -40 -14 -19 0&#10;-175 -94 -222 -134 -23 -19 -61 -62 -86 -96 -25 -34 -55 -74 -67 -89 -11 -14&#10;-26 -46 -33 -70 -6 -24 -18 -54 -26 -65 -7 -12 -19 -58 -25 -101 -6 -44 -18&#10;-87 -25 -96 -21 -24 -20 -427 1 -435 8 -3 19 -22 26 -42 14 -42 78 -133 124&#10;-175 69 -64 195 -108 380 -132 145 -18 452 -4 524 25 28 11 60 20 70 20 10 0&#10;67 16 127 35 175 56 217 46 241 -61 8 -33 16 -70 20 -83 8 -31 -27 -168 -47&#10;-186 -37 -34 -161 -66 -256 -68 -110 -2 -116 2 -160 103 -35 83 -39 87 -94&#10;115 -84 43 -114 46 -301 35 -226 -14 -317 -41 -420 -122 -29 -23 -51 -50 -57&#10;-70 -17 -57 -23 -146 -12 -195 16 -70 75 -188 115 -227 85 -85 108 -88 710&#10;-84 530 4 494 1 630 50 17 5 53 14 80 18 77 13 286 105 395 175 80 50 226 204&#10;305 320 25 36 68 123 89 183 9 23 23 61 32 85 12 32 15 64 11 133 -7 113 -35&#10;176 -116 252 -81 75 -81 76 -181 136 -91 55 -102 59 -215 90 -80 21 -496 35&#10;-750 26 -134 -6 -197 -4 -214 4 -48 22 -49 110 -2 181 33 51 42 58 126 100 53&#10;27 88 37 142 42 133 11 225 -31 311 -143 29 -38 65 -75 80 -83 40 -22 767 -26&#10;799 -5 50 32 57 65 56 256 0 113 -4 183 -11 191 -6 7 -16 47 -23 88 -14 89&#10;-54 166 -101 194 -91 54 -197 91 -353 126 -84 19 -593 22 -655 5z"/>
    <path d="M8815 6354 c-103 -88 -159 -143 -176 -174 -34 -60 -120 -172 -161&#10;-209 -30 -26 -22 -60 25 -104 63 -59 323 -177 390 -177 12 0 47 -7 77 -15 30&#10;-8 90 -22 134 -30 43 -8 92 -23 110 -33 31 -18 31 -18 34 -113 1 -51 0 -123&#10;-4 -159 -5 -58 -10 -68 -44 -100 -21 -19 -50 -44 -65 -55 -21 -16 -30 -34 -35&#10;-70 -12 -69 4 -116 62 -181 26 -30 53 -65 59 -76 7 -12 14 -81 17 -153 l5&#10;-131 -31 -26 c-23 -19 -47 -27 -98 -33 -52 -5 -90 -18 -164 -55 -150 -77 -233&#10;-146 -281 -235 -26 -47 -42 -132 -35 -183 3 -26 2 -63 -3 -83 -4 -19 -6 -50&#10;-3 -67 4 -30 7 -32 47 -32 24 0 48 6 54 14 6 8 22 16 34 19 12 2 60 19 107 37&#10;47 18 103 37 125 42 22 6 63 16 90 24 28 7 79 16 115 20 36 3 76 11 90 16 49&#10;19 197 39 408 53 118 7 219 12 225 10 7 -3 82 -7 167 -9 85 -3 196 -10 245&#10;-16 50 -5 113 -10 141 -10 37 0 59 -6 79 -21 25 -20 31 -21 77 -10 35 8 68 8&#10;107 2 31 -6 92 -15 136 -21 44 -6 127 -17 185 -26 259 -37 294 -32 361 44 56&#10;64 68 80 84 114 9 18 29 56 45 83 16 28 37 64 45 80 8 17 22 41 29 55 8 14 19&#10;36 25 50 6 14 15 32 21 40 5 8 23 49 41 90 17 41 37 82 44 90 18 22 24 55 13&#10;74 -12 21 -58 21 -106 0 -20 -9 -57 -22 -82 -29 -25 -8 -76 -26 -115 -40 -38&#10;-15 -90 -32 -115 -39 -25 -7 -55 -18 -65 -24 -11 -5 -42 -13 -70 -17 -27 -4&#10;-66 -14 -85 -21 -92 -34 -530 -47 -680 -20 -86 16 -194 48 -214 65 -6 5 -26&#10;12 -44 16 -18 3 -37 15 -42 25 -15 28 -12 163 3 185 27 36 419 53 689 30 125&#10;-11 133 -7 157 69 28 92 35 416 9 442 -14 14 -45 19 -160 26 -79 4 -163 13&#10;-188 19 -25 7 -151 15 -280 18 l-234 6 -13 25 c-7 14 -13 55 -13 92 0 96 12&#10;103 177 113 178 10 443 7 534 -5 130 -18 202 13 287 122 88 113 119 223 83&#10;302 -10 24 -22 57 -25 73 -4 16 -27 51 -51 78 l-44 48 -133 -7 c-73 -4 -140&#10;-12 -151 -17 -10 -6 -140 -10 -321 -9 -329 0 -306 -3 -486 65 -52 20 -163 15&#10;-210 -10 -43 -22 -117 -37 -210 -41 -392 -18 -368 -18 -463 11 -57 17 -112 43&#10;-161 76 -41 27 -80 49 -87 49 -8 0 -27 -12 -44 -26z"/>
    <path d="M13894 6366 c-17 -8 -69 -17 -115 -20 -97 -7 -268 -40 -352 -67 -31&#10;-11 -66 -19 -78 -19 -19 0 -83 -23 -154 -55 -16 -8 -62 -27 -101 -44 -39 -17&#10;-99 -46 -134 -66 -34 -19 -64 -35 -66 -35 -24 0 -338 -197 -449 -281 -110 -83&#10;-370 -360 -455 -484 -14 -20 -42 -57 -63 -83 -21 -26 -51 -74 -67 -106 l-30&#10;-59 0 -196 c0 -157 3 -201 15 -218 8 -11 17 -40 21 -64 10 -64 69 -165 139&#10;-235 70 -72 173 -131 296 -172 l84 -27 640 0 c352 0 645 -3 651 -7 22 -14 62&#10;-162 69 -254 6 -79 10 -95 33 -119 23 -25 30 -27 77 -22 29 3 61 10 71 15 11&#10;6 48 18 84 26 36 9 81 21 100 26 19 5 54 10 77 10 24 0 69 9 100 19 32 11 87&#10;22 123 26 35 3 72 11 82 16 9 5 39 14 65 19 172 34 451 98 472 109 9 5 32 11&#10;52 15 62 11 74 34 77 152 3 72 0 109 -8 119 -16 19 -93 20 -128 1 -45 -23&#10;-135 -55 -177 -62 -22 -4 -54 -13 -72 -21 -18 -7 -55 -13 -82 -13 -74 0 -85&#10;20 -100 172 -10 107 -9 155 9 368 11 135 25 282 31 328 9 67 8 86 -3 99 -19&#10;23 -139 116 -168 131 -14 7 -46 25 -71 41 -52 32 -141 61 -188 61 -97 0 -329&#10;-99 -367 -157 -13 -19 -25 -64 -33 -118 -15 -105 -53 -189 -108 -234 -64 -53&#10;-153 -76 -428 -111 -97 -12 -447 -24 -478 -16 -36 9 -42 48 -22 143 17 82 58&#10;197 80 223 7 8 20 29 28 45 23 44 151 184 210 229 55 41 224 126 252 126 9 0&#10;32 8 53 18 154 76 649 100 907 43 178 -39 339 -92 404 -133 91 -57 163 -30&#10;301 110 52 53 111 123 130 155 19 32 44 73 56 91 11 18 24 45 28 59 3 15 15&#10;36 26 47 12 12 20 33 20 55 0 39 -17 53 -150 119 -41 20 -95 48 -120 62 -25&#10;14 -63 32 -85 39 -22 7 -65 23 -95 35 -109 43 -215 80 -231 80 -8 0 -45 9 -80&#10;20 -35 10 -116 24 -179 29 -63 6 -140 15 -170 20 -82 14 -220 12 -256 -3z"/>
    <path d="M15670 6284 c-8 -8 -51 -50 -95 -92 -44 -43 -104 -109 -132 -147 -29&#10;-39 -71 -90 -93 -114 -45 -49 -56 -106 -22 -118 9 -4 31 -17 47 -29 110 -82&#10;249 -136 465 -179 257 -52 255 -50 254 -242 l-1 -135 -71 -67 c-74 -69 -76&#10;-73 -72 -155 2 -47 11 -69 48 -117 99 -131 96 -124 94 -231 -2 -116 -24 -174&#10;-70 -183 -15 -3 -65 -17 -112 -32 -194 -60 -322 -146 -383 -256 -34 -61 -36&#10;-72 -64 -285 -8 -64 14 -92 73 -92 47 0 82 12 165 56 26 13 54 24 63 24 9 0&#10;34 9 56 20 22 11 55 20 73 20 19 0 61 8 93 19 33 10 89 21 127 25 37 4 79 11&#10;93 16 58 22 301 43 489 41 156 -1 575 -21 670 -31 111 -13 238 -29 315 -40 36&#10;-5 106 -14 155 -20 50 -6 124 -17 165 -25 175 -34 226 -14 322 122 18 26 45&#10;62 59 79 15 18 38 56 52 86 14 30 33 60 41 67 8 7 18 25 21 41 3 16 13 34 21&#10;41 8 6 14 16 14 21 0 12 65 145 78 161 10 12 16 62 13 105 -1 18 -7 22 -32 22&#10;-34 0 -114 -23 -174 -49 -22 -10 -74 -28 -115 -40 -41 -12 -95 -28 -120 -37&#10;-57 -19 -210 -56 -321 -78 -100 -18 -431 -23 -489 -6 -19 6 -65 15 -102 20&#10;-37 5 -82 16 -100 24 -18 7 -60 24 -93 36 -33 13 -66 30 -72 38 -8 10 -13 45&#10;-13 89 0 83 9 94 91 112 76 17 433 25 529 11 47 -6 104 -14 127 -17 24 -3 56&#10;0 72 7 50 20 61 60 70 256 13 293 22 282 -240 295 -101 5 -211 14 -245 19 -33&#10;6 -114 10 -180 11 -135 0 -212 10 -224 29 -16 26 -19 112 -6 145 13 31 18 34&#10;73 39 32 4 90 10 128 14 97 12 336 8 482 -7 l122 -13 57 28 c71 36 150 112&#10;192 187 29 52 32 64 32 144 0 73 -4 96 -25 138 -13 28 -25 55 -25 61 0 7 -16&#10;26 -36 44 l-37 32 -156 -7 c-86 -4 -169 -10 -186 -15 -16 -4 -139 -8 -272 -9&#10;-263 -2 -353 9 -435 52 -37 19 -57 22 -145 20 -87 -1 -110 -5 -157 -27 -47&#10;-22 -69 -26 -158 -27 -57 -1 -161 -4 -233 -8 -91 -4 -149 -3 -194 6 -71 15&#10;-226 86 -235 109 -8 20 -87 19 -106 -2z"/>
  </g>
  <text style="fill: rgb(51, 51, 51); font-family: Merienda; font-size: 97px; white-space: pre; transform-origin: 1520.67px 1068.15px;" x="1237.497" y="1004.132"> </text>
</svg>